<svg width="21" height="15" viewBox="0 0 21 15" fill="none" xmlns="http://www.w3.org/2000/svg">
<path id="Vector 26" d="M1 6.36395C0.447715 6.36395 0 6.81167 0 7.36395C0 7.91624 0.447715 8.36395 1 8.36395L1 7.36395L1 6.36395ZM20.7071 8.07106C21.0976 7.68054 21.0976 7.04737 20.7071 6.65685L14.3431 0.292885C13.9526 -0.0976396 13.3195 -0.0976396 12.9289 0.292885C12.5384 0.683409 12.5384 1.31657 12.9289 1.7071L18.5858 7.36395L12.9289 13.0208C12.5384 13.4113 12.5384 14.0445 12.9289 14.435C13.3195 14.8255 13.9526 14.8255 14.3431 14.435L20.7071 8.07106ZM1 7.36395L1 8.36395L20 8.36395V7.36395V6.36395L1 6.36395L1 7.36395Z" fill="white"/>
</svg>
