<svg width="21" height="15" viewBox="0 0 21 15" fill="none" xmlns="http://www.w3.org/2000/svg">
<path id="Vector 26" d="M1 6.36401C0.447715 6.36401 0 6.81173 0 7.36401C0 7.9163 0.447715 8.36401 1 8.36401L1 7.36401L1 6.36401ZM20.7071 8.07112C21.0976 7.6806 21.0976 7.04743 20.7071 6.65691L14.3431 0.292946C13.9526 -0.0975785 13.3195 -0.0975785 12.9289 0.292946C12.5384 0.68347 12.5384 1.31664 12.9289 1.70716L18.5858 7.36401L12.9289 13.0209C12.5384 13.4114 12.5384 14.0446 12.9289 14.4351C13.3195 14.8256 13.9526 14.8256 14.3431 14.4351L20.7071 8.07112ZM1 7.36401L1 8.36401L20 8.36401V7.36401V6.36401L1 6.36401L1 7.36401Z" fill="#570A8C"/>
</svg>
