<svg width="59" height="56" viewBox="0 0 59 56" fill="none" xmlns="http://www.w3.org/2000/svg">
<g id="Rocket" clip-path="url(#clip0_20_675)">
<path id="Vector" d="M58.6721 2.61583C58.309 1.64586 57.5734 1.3341 56.6262 1.08514C54.4866 0.518661 52.2952 0.169881 50.0854 0.0441133C45.6052 -0.201547 41.1042 0.594921 36.9166 2.17243C32.059 4.00276 27.6235 6.76341 23.5462 9.95093C19.9333 12.7755 16.7039 16.0985 14.1285 19.9002C13.2315 21.2299 12.4236 22.6177 11.7102 24.0543C10.9388 23.4033 10.1559 22.766 9.35473 22.1508C8.40334 21.4193 7.42992 20.7176 6.43445 20.0456C5.95068 19.7206 5.46158 19.4039 4.96715 19.0954C4.46409 18.782 3.78251 18.5044 3.53456 17.9206C3.19074 17.1092 3.9131 16.603 4.50211 16.1822L14.7457 8.85647C14.8559 8.77771 14.9716 8.69674 15.1049 8.67691C15.2148 8.66785 15.3254 8.6802 15.4305 8.71327L20.4848 9.94212C20.7603 10.0093 21.0518 10.0765 21.3262 10.0022C21.6006 9.92779 21.8408 9.65845 21.7857 9.38305C21.7306 9.10764 21.4408 8.9782 21.1636 8.89944C21.1256 8.88842 21.0876 8.87851 21.0501 8.86969L16.4119 7.73668C16.014 7.63974 15.6014 7.5417 15.1997 7.61826C14.7826 7.69758 14.4239 7.95535 14.0812 8.20597C10.6435 10.7199 7.19372 13.2023 3.64697 15.5648C3.21388 15.8539 2.77364 16.1464 2.43037 16.538C1.74493 17.3213 1.66228 18.516 2.27664 19.3648C2.66564 19.9024 3.26843 20.1866 3.81943 20.5264C4.4685 20.9263 5.10821 21.3405 5.73854 21.769C7.5382 22.9975 9.26635 24.3274 10.9146 25.7525C10.0637 27.6836 9.3418 29.6691 8.75359 31.6957C8.5106 32.5247 8.22078 33.5436 8.43567 34.409C8.58113 34.9928 9.0109 35.4417 9.38558 35.8901C9.82638 36.4203 10.2743 36.9465 10.7295 37.4687C12.5648 39.5854 14.4707 41.6389 16.3281 43.7358C17.2406 44.7665 18.137 45.8107 19.0175 46.8682C19.2247 47.1183 19.6082 47.1723 19.9041 47.1023C22.6387 46.4557 25.2675 45.4317 28.0037 44.7851C28.542 44.6578 28.882 43.922 28.5481 43.4466C24.344 37.4659 19.903 31.6533 14.5782 26.6128C13.9533 26.0213 13.3142 25.4457 12.6673 24.8778C12.9659 24.2829 13.2734 23.693 13.6079 23.1152C18.0808 15.3351 25.5474 9.20569 33.5539 5.30873C37.0802 3.59186 40.8898 2.45665 44.7942 2.04079C48.0748 1.69158 53.2327 1.28178 56.1943 3.06529C57.9349 4.11182 57.0759 7.11868 56.8417 8.69343C56.4909 11.0328 55.9653 13.3425 55.2691 15.6033C51.6508 27.363 43.3125 37.7975 31.3984 41.8272C30.2964 42.2012 30.7675 43.9616 31.8833 43.5843C36.2526 42.1059 40.2347 39.7837 43.7186 36.8474C43.939 38.7526 44.0834 40.9862 44.2432 42.806C42.0914 45.476 39.9241 48.1334 37.7414 50.7784C37.1375 51.5084 36.53 52.2357 35.9187 52.9601C35.1931 53.8222 34.1291 55.3325 33.085 53.9356C32.8475 53.6178 32.7042 53.1645 32.5296 52.8092C32.1138 51.9647 31.6979 51.1201 31.2821 50.2755L29.1883 46.0266C28.6699 44.9745 27.7558 45.8966 28.2759 46.9459L30.9758 52.4198C31.3648 53.2086 31.7229 54.0243 32.1466 54.7949C32.9412 56.2396 34.7407 56.3922 35.835 55.1953C37.8875 52.9436 39.7708 50.5184 41.697 48.1599C43.0657 46.4849 44.5231 44.8446 45.803 43.1001C46.3766 42.318 45.9568 40.952 45.8697 40.058C45.7182 38.5048 45.5804 36.9449 45.3556 35.3993C47.6647 33.2202 49.7167 30.7841 51.4717 28.1386C54.0063 24.327 55.8978 20.1023 57.1392 15.6997C57.7592 13.4954 58.2215 11.2498 58.5228 8.97985C58.7702 7.06966 59.3724 4.48417 58.6721 2.61583ZM19.5322 45.451C19.5063 45.4201 19.4798 45.3899 19.4545 45.359C19.5415 45.3899 19.5443 45.4207 19.5322 45.451ZM18.3839 33.2099C21.2171 36.431 23.7748 39.8597 26.2526 43.3541C23.9715 43.982 21.7416 44.7933 19.4379 45.337C17.8268 43.4091 16.1463 41.5364 14.4619 39.6719C13.6282 38.7482 12.7951 37.8234 11.9736 36.8887C11.5567 36.4143 11.1427 35.9369 10.7317 35.4566C10.3664 35.0286 9.62582 34.4134 9.53104 33.8526C9.41699 33.1785 9.8137 32.2504 10.0159 31.6268C10.2947 30.7676 10.6071 29.9193 10.8975 29.0634C11.1829 28.2256 11.5108 27.4049 11.8618 26.5941C14.1649 28.6683 16.3428 30.8774 18.3839 33.2099Z" fill="black"/>
<path id="Vector_2" d="M33.6532 29.477C33.8334 29.4903 34.0119 29.4974 34.1893 29.4974C37.8182 29.4974 40.9005 26.6883 41.1798 23.015C41.2848 21.632 40.9772 20.2489 40.2959 19.0406C39.6146 17.8324 38.5901 16.8532 37.3522 16.227C36.1142 15.6007 34.7182 15.3555 33.3408 15.5224C31.9634 15.6892 30.6665 16.2606 29.6139 17.1643C28.5614 18.0679 27.8005 19.2633 27.4276 20.5993C27.0546 21.9352 27.0863 23.3517 27.5187 24.6696C27.9511 25.9876 28.7646 27.1477 29.8566 28.0035C30.9485 28.8592 32.2698 29.372 33.6532 29.477ZM28.9698 19.215C29.463 18.4557 30.1349 17.829 30.9266 17.3895C31.7183 16.95 32.6057 16.7111 33.5111 16.6939C34.0464 16.6867 34.5796 16.764 35.0908 16.923C38.9185 18.1172 40.7385 23.4567 37.6562 26.3523C35.2754 28.5886 30.9765 28.1815 29.069 25.5377C27.7631 23.7244 27.7719 21.0778 28.9725 19.215H28.9698ZM2.44597 43.0115L6.16684 40.1776C6.57017 39.8702 7.10904 39.6312 7.36967 39.1756C7.42305 39.0902 7.45289 38.9921 7.45617 38.8914C7.45019 38.7812 7.40929 38.6756 7.33936 38.5901C7.25346 38.4798 7.14034 38.3936 7.0111 38.3401C6.88186 38.2866 6.74093 38.2676 6.60213 38.285C6.38093 38.3171 6.1656 38.3813 5.96298 38.4756C5.11775 38.8611 4.39595 39.6923 3.79591 40.3043C2.99366 41.1228 1.93575 41.9077 1.4057 42.936C1.3506 43.0462 1.29549 43.1684 1.31147 43.2924C1.38751 43.8939 2.2658 43.1475 2.44597 43.0115ZM9.52075 42.9823C6.43518 45.7396 4.53259 47.8509 0.925229 51.2532C-0.589456 52.6814 0.0188425 53.3209 0.891068 52.5415C3.97664 49.7875 7.72341 47.028 10.809 44.2706C11.6862 43.489 10.3935 42.204 9.52075 42.9823ZM13.5987 47.7154C13.4295 47.6983 13.289 47.7704 13.1656 47.8734C13.0311 47.9869 12.9165 48.1389 12.8063 48.259C12.525 48.5579 12.2456 48.8592 11.9683 49.1629C11.5532 49.6178 11.1427 50.0769 10.7368 50.5399C10.3687 50.9613 9.84914 51.3799 9.55767 51.853C8.81823 52.6726 9.41441 53.105 10.0111 52.5691L13.818 49.1684C14.0868 48.9282 14.1171 48.4634 14.0158 48.1378C13.9535 47.9395 13.808 47.7357 13.5987 47.7154Z" fill="black"/>
</g>
<defs>
<clipPath id="clip0_20_675">
<rect width="59" height="56" fill="white"/>
</clipPath>
</defs>
</svg>
