<svg width="33" height="33" viewBox="0 0 33 33" fill="none" xmlns="http://www.w3.org/2000/svg">
<g id="Comment" clip-path="url(#clip0_19_243)">
<path id="Vector" d="M32.9999 16.5C32.9999 18.6362 32.2633 20.6096 30.7901 22.4205C29.3169 24.2313 27.3158 25.6615 24.7868 26.7112C22.2577 27.7609 19.4955 28.2857 16.5 28.2857C15.6406 28.2857 14.7505 28.2366 13.8298 28.1384C11.399 30.2868 8.57531 31.7723 5.3588 32.5948C4.75724 32.7667 4.05747 32.9017 3.25948 33C3.05077 33.0245 2.86355 32.9693 2.69782 32.8342C2.53208 32.6992 2.42466 32.5212 2.37555 32.3002V32.2818C2.33872 32.2327 2.33565 32.159 2.36634 32.0608C2.39704 31.9626 2.40931 31.9012 2.40317 31.8766C2.39704 31.8521 2.42466 31.7938 2.48604 31.7017L2.59653 31.536L2.72544 31.3794L2.87276 31.2137C2.9587 31.1155 3.14899 30.9037 3.44363 30.5784C3.73827 30.253 3.95004 30.0198 4.07895 29.8786C4.20786 29.7374 4.39815 29.4949 4.64982 29.1512C4.90149 28.8074 5.10099 28.4944 5.24831 28.212C5.39563 27.9297 5.56137 27.5675 5.74552 27.1255C5.92967 26.6836 6.08927 26.2171 6.22431 25.726C4.29686 24.6333 2.77761 23.2829 1.66657 21.6747C0.555523 20.0664 0 18.3415 0 16.5C0 14.904 0.435825 13.3786 1.30747 11.9238C2.17912 10.469 3.35155 9.21375 4.82476 8.15795C6.29797 7.10215 8.05355 6.26426 10.0915 5.64429C12.1294 5.02431 14.2656 4.71432 16.5 4.71432C19.4955 4.71432 22.2577 5.23915 24.7868 6.28881C27.3158 7.33848 29.3169 8.76872 30.7901 10.5795C32.2633 12.3904 32.9999 14.3638 32.9999 16.5Z" fill="#F8F7FF"/>
</g>
<defs>
<clipPath id="clip0_19_243">
<rect width="32.4037" height="32.4037" fill="white" transform="scale(1.0184)"/>
</clipPath>
</defs>
</svg>
