<svg width="62" height="62" viewBox="0 0 62 62" fill="none" xmlns="http://www.w3.org/2000/svg">
<g id="target">
<path id="Vector" d="M31 2.90625C25.3862 2.90625 20.041 4.65265 15.5473 7.95624C15.1159 8.27411 15.0232 8.87958 15.3392 9.31097C15.5303 9.57019 15.8235 9.70642 16.1206 9.70642C16.3212 9.70642 16.5217 9.64587 16.6939 9.5191C20.8546 6.45959 25.8005 4.84375 31 4.84375C34.9545 4.84375 38.7141 5.7652 42.1747 7.57971C42.6458 7.82758 43.2343 7.64594 43.4821 7.17291C43.7319 6.69989 43.5483 6.11334 43.0753 5.86548C39.3876 3.92987 35.2118 2.90625 31 2.90625ZM57.1562 29.0625C57.1562 24.8507 56.1326 20.6749 54.197 16.9872C53.9492 16.5142 53.3607 16.3344 52.8896 16.5804C52.4166 16.8282 52.233 17.4148 52.4828 17.8878C54.2973 21.3484 55.2188 25.108 55.2188 29.0625C55.2188 42.4169 44.3544 53.2812 31 53.2812C17.6456 53.2812 6.78125 42.4169 6.78125 29.0625C6.78125 23.863 8.39709 18.9171 11.4566 14.7564C11.7726 14.325 11.6799 13.7195 11.2485 13.4017C10.8228 13.0895 10.2154 13.1765 9.89374 13.6098C6.59015 18.1035 4.84375 23.4487 4.84375 29.0625C4.84375 40.4681 12.1931 50.1655 22.3954 53.7348L18.6901 57.4401C18.3116 57.8185 18.3116 58.4315 18.6901 58.8099C18.8793 58.9991 19.1271 59.0938 19.375 59.0938C19.6229 59.0938 19.8707 58.9991 20.0599 58.8099L24.5014 54.3685C26.5835 54.9037 28.753 55.2188 31 55.2188C33.247 55.2188 35.4165 54.9037 37.4986 54.3685L41.9401 58.8099C42.1293 58.9991 42.3771 59.0938 42.625 59.0938C42.8729 59.0938 43.1207 58.9991 43.3099 58.8099C43.6884 58.4315 43.6884 57.8185 43.3099 57.4401L39.6046 53.7348C49.8069 50.1655 57.1562 40.4681 57.1562 29.0625Z" fill="black"/>
<path id="Vector_2" d="M31 49.4061C42.2182 49.4061 51.3438 40.2806 51.3438 29.0624C51.3438 23.8013 49.3197 19.0163 46.031 15.4013L46.9011 14.5311H50.375C50.6323 14.5311 50.8783 14.429 51.0599 14.2473L56.8724 8.43483C57.1487 8.15858 57.2319 7.74043 57.0825 7.37904C56.933 7.01765 56.5792 6.78114 56.1875 6.78114H53.2813V3.87489C53.2813 3.48323 53.0447 3.12941 52.6834 2.97993C52.3239 2.83235 51.9057 2.91182 51.6276 3.18996L45.8151 9.00246C45.6334 9.1841 45.5313 9.43007 45.5313 9.68739V13.1613L44.6611 14.0314C41.0461 10.7427 36.2611 8.71864 31 8.71864C19.7818 8.71864 10.6562 17.8442 10.6562 29.0624C10.6562 40.2806 19.7818 49.4061 31 49.4061ZM47.4688 10.0885L51.3438 6.21352V7.74989C51.3438 8.28535 51.777 8.71864 52.3125 8.71864H53.8489L49.9739 12.5936H47.4688V10.0885ZM31 10.6561C35.7266 10.6561 40.0286 12.4623 43.2915 15.401L40.5529 18.1396C37.9958 15.9003 34.6584 14.5311 31 14.5311C22.987 14.5311 16.4688 21.0494 16.4688 29.0624C16.4688 37.0754 22.987 43.5936 31 43.5936C39.013 43.5936 45.5313 37.0754 45.5313 29.0624C45.5313 25.404 44.1621 22.0666 41.9228 19.5095L44.6614 16.7709C47.6001 20.0338 49.4063 24.3358 49.4063 29.0624C49.4063 39.2116 41.1492 47.4686 31 47.4686C20.8508 47.4686 12.5938 39.2116 12.5938 29.0624C12.5938 18.9132 20.8508 10.6561 31 10.6561ZM37.7813 29.0624C37.7813 32.8012 34.7388 35.8436 31 35.8436C27.2612 35.8436 24.2188 32.8012 24.2188 29.0624C24.2188 25.3236 27.2612 22.2811 31 22.2811C32.5201 22.2811 33.91 22.8022 35.0422 23.6503L30.3151 28.3775C29.9366 28.7559 29.9366 29.3689 30.3151 29.7473C30.5043 29.9365 30.7521 30.0311 31 30.0311C31.2479 30.0311 31.4957 29.9365 31.6849 29.7473L36.4121 25.0202C37.2602 26.1524 37.7813 27.5423 37.7813 29.0624ZM36.4119 22.2807C34.9202 21.0875 33.0546 20.3436 31 20.3436C26.1922 20.3436 22.2813 24.2546 22.2813 29.0624C22.2813 33.8702 26.1922 37.7811 31 37.7811C35.8078 37.7811 39.7188 33.8702 39.7188 29.0624C39.7188 27.0078 38.9749 25.1422 37.7817 23.6505L40.5532 20.8791C42.4436 23.0826 43.5938 25.9384 43.5938 29.0624C43.5938 36.0064 37.944 41.6561 31 41.6561C24.056 41.6561 18.4063 36.0064 18.4063 29.0624C18.4063 22.1184 24.056 16.4686 31 16.4686C34.124 16.4686 36.9798 17.6188 39.1833 19.5092L36.4119 22.2807ZM12.5047 10.5671C12.1264 10.9454 12.1264 11.5588 12.5047 11.9371C12.883 12.3154 13.4964 12.3154 13.8748 11.9371C14.2531 11.5588 14.2531 10.9454 13.8748 10.5671C13.4964 10.1888 12.883 10.1888 12.5047 10.5671Z" fill="black"/>
</g>
</svg>
