<svg width="79" height="79" viewBox="0 0 79 79" fill="none" xmlns="http://www.w3.org/2000/svg">
<g id="trust">
<path id="Vector" d="M48.2716 38.8065C47.8365 38.7565 47.4634 38.5492 47.0823 38.3451C40.8182 34.9901 37.0346 28.4449 35.8981 21.5692C35.758 20.7216 35.3196 17.6456 35.7898 17.0468C36.2935 16.4055 37.1056 16.874 37.7424 16.9752C41.3838 17.5545 45.5034 15.2743 47.4282 12.2269C47.6867 11.8176 47.8397 11.3974 48.3455 11.2729C49.3975 11.242 49.3426 11.8246 49.8899 12.5709C52.0215 15.4781 55.628 17.5445 59.3208 16.9206C60.8823 16.6567 61.0864 16.7015 61.0603 18.23C60.9274 25.9571 56.9578 34.2219 50.0678 38.0253C49.4866 38.3461 48.9297 38.6763 48.2716 38.8065ZM48.5467 13.7229C46.3474 16.4422 43.7589 18.3089 40.1445 18.6755L37.3155 18.7039C37.7504 25.6499 41.046 32.6845 47.1458 36.3677C47.4825 36.571 47.8389 36.7975 48.1986 36.9561C48.3889 37.0161 48.5728 36.8713 48.747 36.7805C53.4306 34.3386 56.725 29.7288 58.2624 24.7422C58.8666 22.7825 59.1567 20.7059 59.3667 18.6707C55.2656 18.9754 51.9622 17.6872 49.1895 14.5017L48.5467 13.7229Z" fill="black"/>
<path id="Vector_2" d="M42.7358 26.6489C42.4466 26.1056 42.009 25.5797 41.9801 24.9391C41.9371 23.9882 43.0225 23.7062 43.4163 24.1934C43.5776 24.393 43.6818 24.6607 43.7936 24.8914L44.3087 25.8643C44.8153 26.7326 45.4541 27.4663 46.103 28.2259C47.4252 25.8692 51.0878 22.8092 53.2804 21.4238C53.6867 21.167 54.1036 20.8446 54.5559 20.6802L54.8772 20.6697C55.4617 20.7049 55.8168 21.2329 55.726 21.791C55.6668 22.1539 55.1096 22.3753 54.8162 22.5448C52.3482 23.971 49.1069 26.6374 47.5592 29.0937C47.1746 29.7039 47.0162 30.6559 46.0681 30.4398C45.0886 30.2165 43.2295 27.4459 42.7358 26.6489ZM38.6423 59.8674C36.6477 59.165 34.7781 58.2075 32.8726 57.3004C30.8453 56.3352 28.558 54.8516 26.2354 54.848C26.4522 55.4398 26.8584 55.9965 26.9469 56.6297C27.1074 57.7778 26.2098 59.0674 25.2473 59.582C24.4652 60.0002 23.5452 60.2428 22.7074 60.531L14.8134 63.1474C12.7768 63.8443 12.5762 64.2725 11.8807 61.871L11.1735 59.4251C10.2651 56.2312 9.28431 53.038 8.70304 49.7638C8.26848 47.316 8.0196 45.1152 10.7303 43.7537C12.02 43.106 13.4983 42.7431 14.851 42.2395L16.7854 41.4654C19.1035 40.5107 21.1262 40.2777 22.4039 42.8468C24.8575 41.9073 28.6356 40.732 31.1151 40.5956C34.2535 40.2978 36.2673 41.0796 38.9875 42.2338C41.2453 43.1918 43.6469 43.8203 46.0597 44.2372L47.9827 44.5229C50.3999 44.9328 53.1849 43.6786 54.53 46.7277L55.6792 46.4059C57.3792 46.0561 59.0985 46.2369 60.5636 47.2073L62.4148 46.1617C64.2398 45.1703 67.3193 43.3492 68.7212 46.0623C69.502 47.5731 68.461 49.0671 67.5065 50.2054C63.081 55.483 53.5931 58.959 47.022 60.1294C43.8202 60.6997 41.7212 60.8745 38.6423 59.8674ZM30.8367 42.3168C28.1435 42.5591 25.5874 43.6906 22.9871 44.3709L25.5843 53.2029C27.1645 52.8233 28.6607 53.4478 30.1057 54.0543C37.2826 57.067 38.9533 59.9702 47.5528 58.3082C53.3928 57.1797 63.3139 53.471 66.7596 48.4295C67.0411 48.0047 67.2378 47.6497 67.3297 47.1406C66.5802 45.427 64.3997 47.042 63.3422 47.607L60.265 49.3804C59.1199 50.0052 57.9065 50.5233 56.7006 51.0184C55.0952 51.6777 54.223 51.9452 52.4356 51.4022C50.3268 50.7614 49.2697 51.0285 47.1377 51.3064C46.1077 51.4407 41.9764 51.6914 41.3587 50.5516C41.151 50.1682 41.217 49.6238 41.6409 49.4183C41.9669 49.26 42.6111 49.4064 42.948 49.5038C44.8948 50.0666 48.7674 48.9938 51.0413 48.9653C53.1714 48.9386 53.7044 46.7287 51.6738 46.3226C51.3231 46.2525 50.9361 46.2769 50.5789 46.2762L48.5241 46.266C48.0791 46.2484 47.633 46.1725 47.1916 46.1147L44.4565 45.6702C42.5958 45.3066 40.7683 44.8028 38.9988 44.1175C35.4731 42.7519 34.8171 42.1915 30.8367 42.3168ZM19.3426 42.485C18.1799 42.5955 17.1019 43.2838 16.0165 43.6724L13.0865 44.6852C11.4379 45.2653 9.92806 45.7361 10.1434 47.7924C10.299 49.2785 10.6248 50.7441 10.9738 52.195L13.5992 61.752L15.3515 61.1431L22.8057 58.6732C25.5069 57.7944 25.2606 57.5659 24.4899 55.2769L21.8049 46.3758C21.3939 45.0697 21.0374 42.5865 19.3426 42.485ZM57.1688 47.9648C56.4094 47.9491 55.4763 48.09 54.7546 48.3366L54.1632 49.1388C53.9414 49.4154 53.7253 49.7301 53.4468 49.9475C53.9163 49.9656 54.4116 50.0121 54.8726 49.9033C55.5734 49.7025 58.1056 48.569 58.6875 48.1349C58.2364 47.9522 57.6526 47.9294 57.1688 47.9648Z" fill="black"/>
<path id="Vector_3" d="M20.8033 57.8592C17.2219 57.9307 16.846 52.8429 20.5049 52.5542C23.7016 52.3658 24.5633 57.2097 20.8033 57.8592ZM20.3324 54.3209C19.1466 54.7896 19.5695 56.2195 20.865 56.0804C22.051 55.5769 21.6723 54.2314 20.3324 54.3209Z" fill="black"/>
</g>
</svg>
